<svg width="51" height="73" viewBox="0 0 51 73" fill="none" xmlns="http://www.w3.org/2000/svg">
<path fill-rule="evenodd" clip-rule="evenodd" d="M18.8859 40.249C20.391 39.4484 20.9623 37.5794 20.162 36.0742L2.38283 2.63296C2.27236 2.42521 2.2039 2.19773 2.18134 1.96351C2.15879 1.7293 2.18259 1.49293 2.25139 1.26791C2.39033 0.81347 2.7041 0.432831 3.12368 0.209735C3.54326 -0.0133623 4.03429 -0.0606426 4.48873 0.0782945C4.71375 0.147089 4.92301 0.259531 5.10458 0.409199C5.28614 0.558868 5.43644 0.742833 5.54691 0.950589L23.3267 34.3897C24.1275 35.8959 25.9979 36.4673 27.5038 35.6659C28.3349 35.2241 29.2449 34.9503 30.1819 34.8602C31.1188 34.77 32.0644 34.8654 32.9645 35.1407C33.8646 35.4161 34.7016 35.8661 35.4278 36.465C36.1539 37.0638 36.755 37.7999 37.1967 38.6311L38.3577 40.8134L42.5097 46.8912C46.86 53.2593 44.7093 61.995 37.8998 65.6155C31.0904 69.236 22.6457 66.1339 19.7991 58.9665L17.0817 52.1242L15.9225 49.9419C15.4805 49.1109 15.2066 48.201 15.1164 47.2641C15.0262 46.3272 15.1213 45.3818 15.3965 44.4817C15.6717 43.5816 16.1215 42.7445 16.7202 42.0183C17.3189 41.292 18.0548 40.6908 18.8859 40.249ZM20.5665 43.4131L29.1844 38.8318C29.5999 38.6108 30.0548 38.4739 30.5233 38.4288C30.9917 38.3836 31.4645 38.4312 31.9145 38.5688C32.3645 38.7064 32.7831 38.9313 33.1462 39.2307C33.5093 39.53 33.8099 39.898 34.0308 40.3135C34.6719 41.5175 34.2151 43.0133 33.0107 43.6537L22.4257 49.2817C21.2209 49.9223 19.7249 49.4646 19.0847 48.2595C18.8638 47.844 18.7268 47.3891 18.6817 46.9206C18.6366 46.4522 18.6842 45.9795 18.8218 45.5294C18.9594 45.0794 19.1843 44.6608 19.4836 44.2977C19.783 43.9346 20.1509 43.634 20.5665 43.4131ZM27.302 52.1462C24.314 53.7351 22.9984 57.3165 24.2473 60.4619L26.2564 65.5214C26.6456 66.5016 27.8003 66.9258 28.7315 66.4308C29.5857 65.9766 29.9169 64.9206 29.4748 64.06L27.212 59.6546C26.7597 58.774 27.107 57.6933 27.9877 57.2411C28.8683 56.7889 29.9487 57.1362 30.401 58.0167L31.4961 60.149C32.5639 62.2281 35.1265 63.0314 37.1902 61.934L39.1522 60.8907C42.5095 59.1053 43.5698 54.7981 41.4249 51.6583L41.2599 51.4167C39.3507 48.6218 35.6452 47.7096 32.6567 49.2988L27.302 52.1462Z" fill="#D6ECF4"/>
<path d="M11.395 56.0517C11.5758 55.9011 11.7845 55.7876 12.0092 55.7177C12.2339 55.6477 12.4701 55.6228 12.7045 55.6441C12.9388 55.6655 13.1666 55.7328 13.3749 55.8423C13.5833 55.9517 13.768 56.1011 13.9186 56.2819C14.0691 56.4627 14.1826 56.6714 14.2526 56.8961C14.3225 57.1208 14.3475 57.357 14.3261 57.5914C14.3047 57.8257 14.2374 58.0535 14.128 58.2618C14.0185 58.4701 13.8691 58.6549 13.6883 58.8055L13.6865 58.8072C13.6842 58.8096 13.6815 58.8118 13.6787 58.8136L13.6776 58.8144L13.6597 58.8287L13.6059 58.8735L13.4214 59.0151C13.2655 59.1315 13.0451 59.291 12.7638 59.4809C12.1995 59.8572 11.3842 60.3481 10.3558 60.839C7.68238 62.1217 4.75689 62.7931 1.79167 62.8045C1.31649 62.8045 0.86077 62.6157 0.524767 62.2797C0.188765 61.9437 0 61.488 0 61.0128C0 60.5376 0.188765 60.0819 0.524767 59.7459C0.86077 59.4099 1.31649 59.2211 1.79167 59.2211C4.22381 59.2095 6.62289 58.6568 8.815 57.6032C9.49376 57.2817 10.1488 56.9123 10.7751 56.4978C10.9813 56.3615 11.1827 56.2181 11.3789 56.0678L11.3968 56.0499L11.395 56.0517ZM17.1194 67.8785C17.5147 67.6147 17.7891 67.2048 17.8822 66.7387C17.9753 66.2727 17.8794 65.7888 17.6157 65.3934C17.3519 64.9981 16.942 64.7237 16.4759 64.6306C16.0106 64.5377 15.5275 64.6331 15.1325 64.8959C15.1313 64.8967 15.1301 64.8977 15.129 64.8987C15.1277 64.9 15.1262 64.9012 15.1246 64.9021L15.0912 64.9222L14.9371 65.0207C14.0043 65.5898 13.036 66.0984 12.0382 66.5437C10.1211 67.3929 7.70238 68.1795 5.375 68.1795C4.89982 68.1795 4.4441 68.3682 4.1081 68.7042C3.7721 69.0402 3.58333 69.4959 3.58333 69.9711C3.58333 70.4463 3.7721 70.902 4.1081 71.238C4.4441 71.574 4.89982 71.7628 5.375 71.7628C8.42442 71.7628 11.3771 70.7577 13.493 69.817C14.6424 69.3051 15.7574 68.7192 16.8309 68.063C16.8993 68.0205 16.9674 67.9775 17.0352 67.934L17.0925 67.8964L17.1104 67.8856L17.1194 67.8785Z" fill="#D6ECF4"/>
</svg>
