<svg width="24" height="61" viewBox="0 0 24 61" fill="none" xmlns="http://www.w3.org/2000/svg">
<path d="M15.1633 7.16667C15.164 7.16667 15.1646 7.16607 15.1646 7.16532V5.78708C15.1646 5.02516 15.7823 4.4075 16.5442 4.4075H17.9166C18.5186 4.4075 19.037 4.19131 19.4718 3.75892C19.9066 3.32414 20.124 2.80575 20.124 2.20375C20.124 1.60175 19.9066 1.08456 19.4718 0.652167C19.037 0.217389 18.5186 0 17.9166 0H2.75912C2.01856 0 1.37356 0.274722 0.824118 0.824167C0.274673 1.37361 -4.57764e-05 2.01861 -4.57764e-05 2.75917V4.56875C-4.57764e-05 4.82197 0.0190639 5.04175 0.0572853 5.22808C0.0931187 5.41442 0.170761 5.61031 0.290205 5.81575L1.99412 9.22359C2.71552 10.6664 4.19015 11.5778 5.80324 11.5778H8.99493C9.58423 11.5778 10.062 11.1 10.062 10.5107C10.062 9.54906 11.2342 9.07815 11.8994 9.77255L16.3686 14.4373C16.8391 14.9077 17.7711 14.8474 18.1924 14.3324C18.2275 14.2895 18.261 14.2432 18.2929 14.1936C18.5318 13.8233 18.5473 13.4614 18.3395 13.1078L15.1621 7.16864C15.1616 7.16775 15.1623 7.16667 15.1633 7.16667ZM17.2286 60.9167C18.8316 60.9167 20.1968 60.3529 21.3244 59.2253C22.4543 58.0978 23.0193 56.7325 23.0193 55.1296V40.1692C23.0193 39.6627 22.9715 39.1945 22.876 38.7645C22.778 38.3345 22.6024 37.8973 22.3492 37.453L11.0904 16.3257C10.7559 15.6807 10.2997 15.1874 9.72154 14.8458C9.14582 14.5041 8.51515 14.3333 7.82954 14.3333H4.41104C3.5797 14.3333 2.88931 14.6081 2.33987 15.1575C1.79043 15.7069 1.51571 16.3973 1.51571 17.2287V55.1296C1.51571 56.7301 2.08068 58.0954 3.21062 59.2253C4.33818 60.3529 5.70342 60.9167 7.30637 60.9167H17.2322H17.2286ZM17.2286 57.3333H7.30279C6.66257 57.3333 6.13582 57.1267 5.72254 56.7134C5.30926 56.3001 5.10262 55.7722 5.10262 55.1296V19.6614C5.10262 18.6978 5.88376 17.9167 6.84734 17.9167C7.4935 17.9167 8.08675 18.2738 8.38917 18.8448L16.065 33.3383C18.2787 37.5181 19.436 42.1761 19.436 46.9059V55.1296C19.436 55.7722 19.2281 56.3001 18.8125 56.7134C18.3968 57.1267 17.8688 57.3333 17.2286 57.3333ZM17.2286 57.3333H19.436H5.10262H17.2286Z" fill="#D6ECF4"/>
</svg>
