<svg width="42" height="72" viewBox="0 0 42 72" fill="none" xmlns="http://www.w3.org/2000/svg">
<path d="M10.8911 71.733C10.8899 71.7341 10.8883 71.7348 10.8867 71.7348C9.39952 71.7342 8.11037 71.2624 7.01927 70.3193C5.92993 69.3757 5.28852 68.1777 5.09502 66.7253L0.0317671 28.423C-0.0876774 27.5511 0.129712 26.7878 0.683934 26.1333C1.24055 25.4787 1.97274 25.1514 2.88052 25.1514H38.2158C39.1235 25.1514 39.8545 25.4787 40.4088 26.1333C40.9654 26.7878 41.184 27.5522 41.0645 28.4266L35.9905 66.7217C35.797 68.1741 35.152 69.3721 34.0555 70.3158C32.9614 71.2594 31.6834 71.7312 30.2214 71.7312H10.8954C10.8938 71.7312 10.8922 71.7318 10.8911 71.733ZM10.7925 68.1514H30.2285C30.778 68.1514 31.2593 67.9675 31.6726 67.5996C32.0859 67.2317 32.3391 66.773 32.4323 66.2236L35.1575 45.4578C36.3204 36.5966 29.4229 28.7348 20.4857 28.7348C11.5346 28.7348 4.63295 36.62 5.81852 45.4923L8.58877 66.2236C8.68194 66.773 8.93516 67.2317 9.34843 67.5996C9.76171 67.9675 10.2431 68.1514 10.7925 68.1514ZM20.5034 48.4431C22.9878 48.4431 25.1032 47.5711 26.8494 45.8273C28.5957 44.0881 29.4689 41.974 29.4689 39.4848V35.9014C29.4689 35.3926 29.2969 34.9674 28.9529 34.6258C28.6089 34.2818 28.1824 34.1098 27.6736 34.1098C27.1648 34.1098 26.7395 34.2818 26.3979 34.6258C26.0563 34.9698 25.8855 35.395 25.8855 35.9014V39.4848C25.8855 40.9587 25.3588 42.2236 24.3053 43.2795C23.2494 44.333 21.9845 44.8598 20.5105 44.8598C19.0366 44.8598 17.7717 44.333 16.7158 43.2795C15.6623 42.2236 15.1355 40.9587 15.1355 39.4848V35.9014C15.1355 35.3926 14.9635 34.9674 14.6195 34.6258C14.2755 34.2818 13.8491 34.1098 13.3403 34.1098C12.8314 34.1098 12.4062 34.2818 12.0646 34.6258C11.723 34.9698 11.5522 35.395 11.5522 35.9014V39.4848C11.5522 41.974 12.4229 44.0881 14.1644 45.8273C15.9035 47.5711 18.0165 48.4431 20.5034 48.4431ZM31.2677 17.9131C30.2763 17.9131 29.4294 17.5667 28.7271 16.8739C28.0272 16.1788 27.6772 15.3343 27.6772 14.3405C27.6772 13.3467 28.0248 12.4999 28.7199 11.7999C29.4151 11.1 30.2596 10.75 31.2534 10.75C32.2447 10.75 33.0916 11.0964 33.7939 11.7892C34.4939 12.4867 34.8438 13.3324 34.8438 14.3262C34.8438 15.3176 34.4963 16.1644 33.8011 16.8668C33.1059 17.5667 32.2615 17.9131 31.2677 17.9131ZM13.3439 14.3298C11.385 14.3298 9.7008 13.625 8.29135 12.2156C6.88191 10.8061 6.17718 9.11122 6.17718 7.13083C6.17718 5.15044 6.88191 3.46628 8.29135 2.07833C9.7008 0.692778 11.3969 0 13.3797 0C15.3625 0 17.0466 0.692778 18.4322 2.07833C19.8177 3.46389 20.5105 5.16 20.5105 7.16667C20.5105 9.12317 19.8177 10.8073 18.4322 12.2192C17.0466 13.6286 15.3505 14.3298 13.3439 14.3298ZM30.2285 68.1514H8.72852H32.2925H30.2285Z" fill="#D6ECF4"/>
</svg>
